<?xml version="1.0" encoding="UTF-8" standalone="no"?>
<svg xmlns:dc="http://purl.org/dc/elements/1.1/" xmlns:cc="http://creativecommons.org/ns#" xmlns:rdf="http://www.w3.org/1999/02/22-rdf-syntax-ns#" xmlns:svg="http://www.w3.org/2000/svg" xmlns="http://www.w3.org/2000/svg" xmlns:sodipodi="http://sodipodi.sourceforge.net/DTD/sodipodi-0.dtd" xmlns:inkscape="http://www.inkscape.org/namespaces/inkscape" width="772.11328pt" height="772.11719pt" viewBox="0 0 772.11328 772.11722" version="1.2" id="svg19" sodipodi:docname="logo_blue.svg" inkscape:version="0.92.5 (2060ec1f9f, 2020-04-08)">
    <metadata id="metadata23">
        <rdf:RDF>
            <cc:Work rdf:about="">
                <dc:format>image/svg+xml</dc:format>
                <dc:type rdf:resource="http://purl.org/dc/dcmitype/StillImage" />
                <dc:title></dc:title>
            </cc:Work>
        </rdf:RDF>
    </metadata>
    <sodipodi:namedview pagecolor="#ffffff" bordercolor="#666666" borderopacity="1" objecttolerance="10" gridtolerance="10" guidetolerance="10" inkscape:pageopacity="0" inkscape:pageshadow="2" inkscape:window-width="1920" inkscape:window-height="1016" id="namedview21" showgrid="false" inkscape:zoom="0.12291668" inkscape:cx="511.98437" inkscape:cy="139.10424" inkscape:window-x="0" inkscape:window-y="27" inkscape:window-maximized="1" inkscape:current-layer="svg19" />
    <defs id="defs8">
        <clipPath id="clip1">
            <path d="M 21.011719,52.210938 H 793.125 V 824.32812 H 21.011719 Z m 0,0" id="path2" inkscape:connector-curvature="0" />
        </clipPath>
        <clipPath id="clip2">
            <path d="M 252.28516,251.89453 H 576.07422 V 621.64844 H 252.28516 Z m 0,0" id="path5" inkscape:connector-curvature="0" />
        </clipPath>
    </defs>
    <g id="surface1" transform="translate(-21.011719,-52.210938)">
        <g clip-path="url(#clip1)" id="g12" style="clip-rule:nonzero">
            <path style="fill:#002863;fill-opacity:1;fill-rule:nonzero;stroke:none" d="m 407.06641,90.820312 c 191.60156,0 347.45312,155.851558 347.45312,347.449218 0,191.60156 -155.85156,347.45313 -347.45312,347.45313 -191.59766,0 -347.449222,-155.85157 -347.449222,-347.45313 0,-191.59766 155.851562,-347.449218 347.449222,-347.449218 m 0,-38.609374 c -213.21875,0 -386.054691,172.839842 -386.054691,386.058592 0,213.22266 172.835941,386.05859 386.054691,386.05859 213.22265,0 386.05859,-172.83593 386.05859,-386.05859 0,-213.21875 -172.83594,-386.058592 -386.05859,-386.058592 z m 0,0" id="path10" inkscape:connector-curvature="0" />
        </g>
        <g clip-path="url(#clip2)" id="g16" style="clip-rule:nonzero">
            <path style="fill:#001430;fill-opacity:1;fill-rule:nonzero;stroke:none" d="m 278.38281,253.77344 -25.48437,25.11328 V 570.4375 l 52,51.21094 h 28.51953 v -229 l 222.97656,218.12109 28.68359,-28.25391 V 304.21484 L 531.94531,251.89453 H 506.02734 V 462.5 Z m 0,0" id="path14" inkscape:connector-curvature="0" />
        </g>
    </g>
</svg>